# xmcd
#
# Track frame offsets:
#	150
#	18985
#	30500
#	43858
#	61856
#	72447
#	91347
#	105284
#	121323
#	134919
#	148755
#	163278
#	178276
#	189066
#	206351
#	221969
#
# Disc length: 3184 seconds
#
# Revision: 0
# Processed by: cddbd v1.5PL3 Copyright (c) Steve Scherf et al.
# Submitted via: dBpowerAMP V4.0
#
DISCID=ee0c6e10
DTITLE=Emilio and Eduardo - Momentos
DYEAR=1900
DGENRE=
TTITLE0=Voce Virou Saudade
TTITLE1=Sapatio, Sapatio
TTITLE2=Bate Coracao
TTITLE3=Maluco de Paixao
TTITLE4=Remelexo
TTITLE5=Veneno do Desejo
TTITLE6=Rodopio
TTITLE7=Peao de Caminhonete
TTITLE8=Minha Luz
TTITLE9=Grito de Amor
TTITLE10=Eu Te Amo Demais
TTITLE11=Da Pa Virada
TTITLE12=Fogo na Botina
TTITLE13=Vendaval de Ilusoes
TTITLE14=Fungado na Barra
TTITLE15=Hey Saudade
EXTD=
EXTT0=
EXTT1=
EXTT2=
EXTT3=
EXTT4=
EXTT5=
EXTT6=
EXTT7=
EXTT8=
EXTT9=
EXTT10=
EXTT11=
EXTT12=
EXTT13=
EXTT14=
EXTT15=
PLAYORDER=
